<svg xmlns="http://www.w3.org/2000/svg" width="53" height="14" viewBox="0 0 53 14">
  <path fill="#FF5F15" fill-rule="evenodd" d="M7.8438741,5.51134254 C7.8438741,3.74963335 6.83633736,3.37232597 6.18869284,3.37232597 C4.60565154,3.37232597 3.64629782,5.38566755 3.64629782,7.27333414 C3.64629782,8.7325761 4.46164081,9.38693329 5.22933913,9.38693329 C6.81238043,9.38693329 7.8438741,7.52468412 7.8438741,5.51134254 Z M-4.79616347e-14,7.47441412 C-4.79616347e-14,3.52313595 2.35073962,-1.77635684e-15 6.4767143,-1.77635684e-15 C9.49878618,-1.77635684e-15 11.4899027,1.91251917 11.4899027,5.25999256 C11.4899027,9.2612583 9.45087233,12.7592593 4.96554377,12.7592593 C1.99111657,12.7592593 -4.79616347e-14,10.8467401 -4.79616347e-14,7.47441412 Z M13.3112122,7.94845592 L14.3345701,0.364550265 L17.9402459,0.364550265 L17.0631601,7.05139463 C16.8438886,8.76846195 17.0144939,9.69053745 17.7939738,9.69053745 C18.4763947,9.69053745 19.7676904,8.76846195 20.1329605,5.69372687 L20.7664418,0.364550265 L24.2991182,0.364550265 L23.4953051,7.20550516 C23.2760337,9.02435443 23.4953051,9.69053745 24.1774526,9.69053745 C24.9569326,9.69053745 26.2728347,8.61435142 26.7597705,4.74577461 C26.9547088,3.25958556 26.9547088,2.0042748 26.7597705,0.364550265 L30.4389924,0.364550265 C30.7066567,1.97839803 30.7066567,3.77194557 30.4389924,5.51431462 C29.6835722,11.2023157 26.662438,13.1238095 23.5683045,13.1238095 C21.6678607,13.1238095 20.6445028,12.1758573 20.3035657,10.8434912 L20.2546261,10.8434912 C19.4021468,12.3293927 17.8672466,13.1238095 16.4783451,13.1238095 C13.9446935,13.1238095 12.9213355,10.9973142 13.3112122,7.94845592 Z M36.4793738,0.230590755 L36.2834055,1.9729598 L36.3326037,1.99826153 C37.4100173,0.691772264 38.7328722,-1.77635684e-15 40.300344,-1.77635684e-15 C42.5777544,-1.77635684e-15 43.5086727,1.58825852 43.0678127,5.09887337 L42.1127075,12.7592593 L38.4635188,12.7592593 L39.3205024,5.96977038 C39.5409324,4.22740133 39.3938874,3.43327207 38.610289,3.43327207 C37.5081389,3.43327207 35.9406671,4.99622886 35.5487304,8.12214243 L35.0100236,12.7592593 L31.3360984,12.7592593 L32.8299103,0.230590755 L36.4793738,0.230590755 Z M49.6831941,0.230590755 L49.4639319,1.94708303 L49.5125961,1.94708303 C50.4383088,0.666183016 51.607889,-1.77635684e-15 52.9231884,-1.77635684e-15 L52.4116679,4.2532781 C50.6575709,3.58680756 49.1957322,4.97035209 48.757208,7.94273018 L48.2213554,12.7592593 L44.5668955,12.7592593 L46.0287341,0.230590755 L49.6831941,0.230590755 Z"/>
</svg>
